# xmcd
#
# Track frame offsets: 
#        150
#        15764
#        38995
#        56856
#        79208
#        96705
#        118968
#        138546
#        160638
#        176220
#        192182
#        212109
#        226515
#        243174
#        257768
#        276488
#
# Disc length: 3994 seconds
#
# Revision: 0
# Processed by: cddbd v1.5.1PL0 Copyright (c) Steve Scherf et al.
# Submitted via: ExactAudioCopy v0.95a5
#
DISCID=e40f9810
DTITLE=Andrius Kaniava - Kaniavos vakaras
DYEAR=1900
DGENRE=Acoustic
TTITLE0=Atsilusi muse
TTITLE1=Draugas
TTITLE2=Daina be pavadinimo
TTITLE3=Vejas
TTITLE4=Tolima salis
TTITLE5=Jura
TTITLE6=Fregatos
TTITLE7=Daina apie Vilniu
TTITLE8=Muse
TTITLE9=Gyvenimas grazus
TTITLE10=Amerika Amerika
TTITLE11=Gyvenimas grazus 2
TTITLE12=Monika
TTITLE13=Muse 2
TTITLE14=Traukinys
TTITLE15=Muse 2
EXTD=
EXTT0=
EXTT1=
EXTT2=
EXTT3=
EXTT4=
EXTT5=
EXTT6=
EXTT7=
EXTT8=
EXTT9=
EXTT10=
EXTT11=
EXTT12=
EXTT13=
EXTT14=
EXTT15=
PLAYORDER=
